<svg width="32" height="30" viewBox="0 0 32 30" fill="none" xmlns="http://www.w3.org/2000/svg">
<path fill-rule="evenodd" clip-rule="evenodd" d="M24.7753 23.6834C24.5792 23.8377 24.1735 23.9642 24.1735 23.1654V17.2274V13.1529V6.97918L24.1773 6.98168C24.1773 6.07568 24.7215 6.41318 24.8166 6.47918C26.9185 8.73093 28.2102 11.7457 28.2102 15.0589C28.2102 18.3942 26.9017 21.4269 24.7753 23.6834ZM21.3369 26.2714L21.3122 26.2841C21.2083 26.3374 21.1044 26.3906 20.9989 26.4407C20.8787 26.4882 20.3745 26.6404 20.3713 25.8499V20.4249V19.1752C20.779 18.9797 21.1636 18.7434 21.5208 18.4729C21.6738 18.3567 21.8223 18.2347 21.9645 18.1062V19.5679V24.5467C21.9645 25.7392 21.5165 26.1529 21.3369 26.2714ZM15.5846 27.6629C13.5717 27.6629 11.6687 27.1879 9.97828 26.3479C9.94876 26.3333 9.92012 26.3172 9.89149 26.3011L9.89148 26.3011L9.89147 26.3011L9.89145 26.3011L9.89144 26.3011C9.86738 26.2876 9.84333 26.2741 9.81875 26.2614C9.67901 26.1632 9.21698 25.7587 9.20445 24.7417V16.9649C9.20445 16.1512 9.42683 15.3899 9.80874 14.7319C9.86308 14.6384 9.91767 14.5452 9.97828 14.4562C10.2119 14.1134 10.4924 13.8052 10.8099 13.5394C11.4242 13.0252 12.1788 12.6762 13.0067 12.5502C13.2281 12.5164 13.4527 12.4934 13.6834 12.4934C13.8431 12.4934 14.0007 12.5027 14.1562 12.5189C16.2222 12.7364 17.8708 14.3624 18.1247 16.4139C18.9353 16.2559 19.6393 15.8027 20.1244 15.1722C19.3783 12.5049 17.0123 10.5074 14.1562 10.3072C13.9997 10.2962 13.8424 10.2887 13.6834 10.2887C13.455 10.2887 13.2293 10.3002 13.0067 10.3227V9.17218V4.27393C13.007 2.88218 13.5797 2.63193 13.6523 2.60568C13.8193 2.58043 13.9871 2.55693 14.1562 2.53768C14.6252 2.48493 15.1015 2.45493 15.5846 2.45493C17.6504 2.45493 19.6 2.95568 21.3229 3.83818C21.4141 3.89468 22.0056 4.30943 21.9645 5.53518V13.1529C21.9645 13.9667 21.7424 14.7282 21.3602 15.3862C21.097 15.8394 20.759 16.2437 20.3593 16.5784C19.7452 17.0929 18.9902 17.4417 18.1625 17.5679C17.9411 17.6014 17.7165 17.6244 17.4859 17.6244C17.3261 17.6244 17.1686 17.6154 17.0131 17.5989C14.947 17.3814 13.2985 15.7557 13.0443 13.7039C12.2339 13.8619 11.5299 14.3154 11.0446 14.9457C11.7906 17.6129 14.1567 19.6104 17.0131 19.8109C17.1693 19.8219 17.3266 19.8294 17.4859 19.8294C17.7142 19.8294 17.9399 19.8177 18.1625 19.7952V20.9459V25.8429C18.1625 27.2347 17.5905 27.4857 17.5169 27.5122C17.3499 27.5377 17.1821 27.5612 17.0131 27.5802C16.5437 27.6332 16.0677 27.6629 15.5846 27.6629ZM6.22185 23.5052C4.19539 21.2684 2.95902 18.3054 2.95902 15.0589C2.95902 11.8127 4.19539 8.84943 6.22185 6.61268C6.25425 6.57705 6.28762 6.54241 6.321 6.50776C6.34103 6.48697 6.36106 6.46618 6.38087 6.44518C6.57145 6.28667 6.99567 6.13568 6.99567 6.95268V12.8904V16.9649V23.1389L6.99192 23.1364C6.99192 24.0879 6.39189 23.6682 6.34181 23.6314C6.32542 23.6139 6.30873 23.5966 6.29202 23.5793C6.26839 23.5549 6.24474 23.5304 6.22185 23.5052ZM10.1849 3.67193C10.3254 3.62043 10.7952 3.50493 10.7979 4.26893V9.69292V10.9429C10.5127 11.0794 10.2392 11.2362 9.97828 11.4102C9.86583 11.4852 9.7559 11.5634 9.64846 11.6452C9.4952 11.7612 9.34695 11.8832 9.20445 12.0117V10.5502V5.57043C9.20495 4.34943 9.67551 3.94468 9.8453 3.83818C9.86539 3.82804 9.88532 3.81775 9.90524 3.80746C9.92952 3.79492 9.95379 3.7824 9.97828 3.77018C10.0239 3.74751 10.0699 3.72595 10.1159 3.7044L10.1849 3.67193ZM15.5846 0.250175C12.0463 0.250175 8.795 1.49468 6.24264 3.56618L6.23397 3.573C6.22989 3.57615 6.22579 3.57933 6.22185 3.58268C2.8854 6.30043 0.75 10.4349 0.75 15.0589C0.75 19.6832 2.8854 23.8177 6.22185 26.5354L6.23214 26.5436L6.24239 26.5517C8.79475 28.6232 12.0463 29.8679 15.5846 29.8679C23.7643 29.8679 30.419 23.2247 30.419 15.0589C30.419 6.89318 23.7643 0.250175 15.5846 0.250175Z" fill="#99b7c3"/>
</svg>
